<?xml version="1.0" standalone="no"?>
<!DOCTYPE svg PUBLIC "-//W3C//DTD SVG 1.1//EN" "http://www.w3.org/Graphics/SVG/1.1/DTD/svg11.dtd" >
<svg xmlns="http://www.w3.org/2000/svg">
<metadata>
<json>
<![CDATA[
{
	"fontFamily": "icomoon",
	"majorVersion": 1,
	"minorVersion": 0,
	"version": "Version 1.0",
	"fontId": "icomoon",
	"psName": "icomoon",
	"subFamily": "Regular",
	"fullName": "icomoon",
	"description": "Font generated by IcoMoon."
}
]]>
</json>
</metadata>
<defs>
<font id="icomoon" horiz-adv-x="1024">
<font-face units-per-em="1024" ascent="960" descent="-64" />
<missing-glyph horiz-adv-x="1024" />
<glyph unicode="&#x20;" horiz-adv-x="512" d="" />
<glyph unicode="&#xe900;" glyph-name="add-circle" data-tags="add-circle" d="M769.216 397.536v100.96h-206.72v206.72h-100.96v-206.72h-206.72v-100.96h206.72v-206.72h100.96v206.72h206.72zM512 960c283.648 0 512-228.352 512-512s-228.352-512-512-512-512 228.352-512 512 228.352 512 512 512z" />
<glyph unicode="&#xe901;" glyph-name="announcement" data-tags="announcement" d="M562.464 294.144v103.36h-100.96v-103.36h100.96zM562.464 498.464v307.68h-100.96v-307.68h100.96zM923.040 960c55.296 0 100.96-45.664 100.96-100.96v-615.36c0-55.296-45.664-103.36-100.96-103.36h-718.72l-204.32-204.32v923.040c0 55.296 45.664 100.96 100.96 100.96h822.080z" />
<glyph unicode="&#xe902;" glyph-name="arrow-down-circle" data-tags="arrow-down-circle" d="M512 344.64l204.32 206.72h-408.64zM512 960c283.648 0 512-228.352 512-512s-228.352-512-512-512-512 228.352-512 512 228.352 512 512 512z" />
<glyph unicode="&#xe903;" glyph-name="arrow-right-circle" data-tags="arrow-right-circle" d="M615.36 448l-206.72 204.32v-408.64zM0 448c0 283.648 228.352 512 512 512s512-228.352 512-512-228.352-512-512-512-512 228.352-512 512z" />
<glyph unicode="&#xe904;" glyph-name="books" data-tags="books" horiz-adv-x="1152" d="M234.72 850.368h-201.184c-18.432 0-33.536-15.072-33.536-33.536v-737.664c0-18.432 15.072-33.536 33.536-33.536h201.184c18.432 0 33.536 15.072 33.536 33.536v737.664c0 18.432-15.072 33.536-33.536 33.536zM201.184 649.184h-134.112v67.072h134.112v-67.072zM570.016 850.368h-201.184c-18.432 0-33.536-15.072-33.536-33.536v-737.664c0-18.432 15.104-33.536 33.536-33.536h201.184c18.432 0 33.536 15.072 33.536 33.536v737.664c0 18.432-15.072 33.536-33.536 33.536zM536.48 649.184h-134.112v67.072h134.112v-67.072zM801.664 798.528l-179.648-90.528c-16.48-8.288-23.168-28.576-14.848-45.024l301.76-598.88c8.288-16.48 28.576-23.168 45.024-14.848l179.648 90.528c16.48 8.288 23.168 28.576 14.848 45.024l-301.76 598.88c-8.288 16.48-28.576 23.168-45.024 14.848z" />
<glyph unicode="&#xe905;" glyph-name="calendar" data-tags="calendar" horiz-adv-x="864" d="M194.272 473.152h244.576v-244.576h-244.576v244.576zM779.424 34.272v534.848h-681.152v-534.848h681.152zM779.424 813.728c25.92 0 48.768-9.92 68.576-29.728s29.728-42.656 29.728-68.576v-681.152c0-25.92-9.92-48.768-29.728-68.576s-42.656-29.728-68.576-29.728h-681.152c-27.424 0-50.656 9.92-69.728 29.728s-28.576 42.656-28.576 68.576v681.152c0 25.92 9.536 48.768 28.576 68.576s42.272 29.728 69.728 29.728h48v98.272h98.272v-98.272h388.576v98.272h98.272v-98.272h48z" />
<glyph unicode="&#xe906;" glyph-name="call" data-tags="call" d="M282.464 499.616c61.44-120.736 160.416-219.296 281.184-281.184l93.856 93.856c11.52 11.52 28.576 15.36 43.52 10.24 47.776-15.776 99.424-24.32 152.32-24.32 23.456 0 42.656-19.2 42.656-42.656v-148.896c0-23.456-19.2-42.656-42.656-42.656-400.64 0-725.344 324.704-725.344 725.344 0 23.456 19.2 42.656 42.656 42.656h149.344c23.456 0 42.656-19.2 42.656-42.656 0-53.344 8.544-104.544 24.32-152.32 4.704-14.944 1.28-31.584-10.656-43.52l-93.856-93.856z" />
<glyph unicode="&#xe907;" glyph-name="check" data-tags="check" horiz-adv-x="1216" d="M409.6 163.2l723.2 723.2 96-96-819.2-819.2-380.8 380.8 96 96z" />
<glyph unicode="&#xe908;" glyph-name="checkbox-checked" data-tags="checkbox-checked" d="M910.208 960h-796.448c-63.136 0-113.792-51.2-113.792-113.792v-796.448c0-62.592 50.624-113.792 113.792-113.792h796.448c63.136 0 113.792 51.2 113.792 113.792v796.448c0 62.592-50.624 113.792-113.792 113.792zM398.208 163.552l-284.448 284.448 80.224 80.224 204.224-203.648 431.776 431.776 80.224-80.768-512-512z" />
<glyph unicode="&#xe909;" glyph-name="checkbox-unchecked" data-tags="checkbox-unchecked" d="M910.208 846.208v-796.448h-796.448v796.448h796.448zM910.208 960h-796.448c-62.592 0-113.792-51.2-113.792-113.792v-796.448c0-62.592 51.2-113.792 113.792-113.792h796.448c62.592 0 113.792 51.2 113.792 113.792v796.448c0 62.592-51.2 113.792-113.792 113.792z" />
<glyph unicode="&#xe90a;" glyph-name="check-cycle" data-tags="check-cycle" d="M512 960c-282.624 0-512-229.376-512-512s229.376-512 512-512 512 229.376 512 512-229.376 512-512 512zM409.6 192l-256 256 72.192 72.192 183.808-183.296 388.608 388.608 72.192-72.704-460.8-460.8z" />
<glyph unicode="&#xe90b;" glyph-name="check-cycle-done" data-tags="check-cycle-done" d="M512 960c-282.624 0-512-229.376-512-512s229.376-512 512-512 512 229.376 512 512-229.376 512-512 512zM409.6 192l-256 256 72.192 72.192 183.808-183.296 388.608 388.608 72.192-72.704-460.8-460.8z" />
<glyph unicode="&#xe90c;" glyph-name="check-cycle-fail" data-tags="check-cycle-fail" d="M512 36.96c225.952 0 411.040 185.088 411.040 411.040s-185.088 411.040-411.040 411.040-411.040-185.088-411.040-411.040 185.088-411.040 411.040-411.040zM512 960c283.648 0 512-228.352 512-512s-228.352-512-512-512-512 228.352-512 512 228.352 512 512 512zM644.192 652.32l72.128-72.128-132.192-132.192 132.192-132.192-72.128-72.128-132.192 132.192-132.192-132.192-72.128 72.128 132.192 132.192-132.192 132.192 72.128 72.128 132.192-132.192z" />
<glyph unicode="&#xe90d;" glyph-name="clock" data-tags="clock" d="M538.432 705.216v-269.216l230.752-137.024-38.464-64.896-269.216 163.456v307.68h76.928zM512 36.96c225.952 0 411.040 185.088 411.040 411.040s-185.088 411.040-411.040 411.040-411.040-185.088-411.040-411.040 185.088-411.040 411.040-411.040zM512 960c283.648 0 512-228.352 512-512s-228.352-512-512-512-512 228.352-512 512 228.352 512 512 512z" />
<glyph unicode="&#xe90e;" glyph-name="close" data-tags="close" d="M988.8 828.8l-380.8-380.8 380.8-380.8-96-96-380.8 380.8-380.8-380.8-96 96 380.8 380.8-380.8 380.8 96 96 380.8-380.8 380.8 380.8z" />
<glyph unicode="&#xe90f;" glyph-name="copy" data-tags="copy" d="M859.52 29.696v651.424h-509.824v-651.424h509.824zM859.52 772.64c50.112 0 93.696-41.408 93.696-91.52v-651.424c0-50.112-43.584-93.696-93.696-93.696h-509.824c-50.112 0-93.696 43.584-93.696 93.696v651.424c0 50.112 43.584 91.52 93.696 91.52h509.824zM720.064 960v-93.696h-557.76v-651.424h-91.52v651.424c0 50.112 41.408 93.696 91.52 93.696h557.76z" />
<glyph unicode="&#xe910;" glyph-name="delete" data-tags="delete" horiz-adv-x="864" d="M824 904v-114.656h-794.656v114.656h197.344l58.656 56h282.656l58.656-56h197.344zM85.344 50.656v682.656h682.656v-682.656c0-30.208-11.552-56.896-34.656-80s-49.792-34.656-80-34.656h-453.344c-30.208 0-56.896 11.552-80 34.656s-34.656 49.792-34.656 80z" />
<glyph unicode="&#xe911;" glyph-name="down" data-tags="down" horiz-adv-x="1376" d="M160 922.656l522.656-522.656 522.656 522.656 160-160-682.656-682.656-682.656 682.656z" />
<glyph unicode="&#xe912;" glyph-name="download" data-tags="download" d="M91.68 86.912h840.64v-121.312h-840.64v121.312zM932.32 628.544l-420.32-420.32-420.32 420.32h239.776v361.088h361.088v-361.088h239.776z" />
<glyph unicode="&#xe913;" glyph-name="edit" data-tags="edit" d="M1008 730.656l-104-104-213.344 213.344 104 104c10.656 10.656 24 16 40 16s29.344-5.344 40-16l133.344-133.344c10.656-10.656 16-24 16-40s-5.344-29.344-16-40zM0 149.344l629.344 629.344 213.344-213.344-629.344-629.344h-213.344v213.344z" />
<glyph unicode="&#xe914;" glyph-name="email" data-tags="email" horiz-adv-x="1152" d="M570.656 503.744l453.92 284.064h-907.872l453.92-284.064zM1024.608 108.192v565.44l-453.92-281.376-453.92 281.376v-565.44h907.872zM1024.608 901.92c30.080 0 56.192-11.488 78.304-34.496s33.184-49.568 33.184-79.648v-679.552c0-30.080-11.040-56.64-33.184-79.648s-48.224-34.496-78.304-34.496h-907.872c-30.080 0-56.192 11.488-78.304 34.496s-33.184 49.568-33.184 79.648v679.552c0 30.080 11.040 56.64 33.184 79.648s48.224 34.496 78.304 34.496h907.872z" />
<glyph unicode="&#xe915;" glyph-name="email-black" data-tags="email-black" horiz-adv-x="1184" d="M1062.528 684.256v119.52l-475.264-297.408-475.264 297.408v-119.52l475.264-294.624zM1062.528 923.264c63.936 0 116.736-55.584 116.736-119.52v-711.52c0-63.936-52.8-119.52-116.736-119.52h-950.56c-63.936 0-116.736 55.584-116.736 119.52v711.52c0 63.936 52.8 119.52 116.736 119.52h950.56z" />
<glyph unicode="&#xe916;" glyph-name="email-sent" data-tags="email-sent" horiz-adv-x="1280" d="M1178.784 414.656l-277.696-277.696-122.208 111.072-77.76-77.76 199.968-188.832 355.456 355.456-77.76 77.76zM623.392 203.584l122.208 122.208c8.192 9.248 20.064 15.040 33.312 15.040s25.152-5.792 33.28-15.008l88.896-77.792 222.176 222.176v333.248c-0.448 30.496-13.12 57.952-33.312 77.728-18.4 20.544-44.992 33.376-74.592 33.376-1.12 0-2.24-0.032-3.36-0.064h-888.512c-0.96 0.032-2.080 0.064-3.2 0.064-29.6 0-56.192-12.864-74.496-33.28-20.288-19.904-32.96-47.36-33.408-77.76v-666.592c0.448-30.496 13.12-57.952 33.312-77.728 18.4-20.544 44.992-33.376 74.592-33.376 1.12 0 2.24 0.032 3.36 0.064h610.784l-111.072 111.072c-9.248 8.192-15.040 20.064-15.040 33.312s5.792 25.152 15.008 33.28zM123.52 692.352v111.072l444.32-277.696 444.32 277.696v-111.072l-444.32-277.696z" />
<glyph unicode="&#xe917;" glyph-name="error" data-tags="error" d="M562.464 397.536v307.68h-100.96v-307.68h100.96zM562.464 190.784v103.36h-100.96v-103.36h100.96zM512 960c283.648 0 512-228.352 512-512s-228.352-512-512-512-512 228.352-512 512 228.352 512 512 512z" />
<glyph unicode="&#xe918;" glyph-name="excel" data-tags="excel" horiz-adv-x="768" d="M746.592 710.336c8.928-8.928 17.856-21.44 24.992-37.472s8.928-32.096 8.928-44.608v-588.96c0-12.512-3.584-24.992-14.272-33.888-8.928-8.928-19.648-14.272-33.888-14.272h-685.344c-14.272 0-24.992 5.344-33.888 14.272-10.72 8.928-14.272 21.44-14.272 33.888v817.408c0 12.512 3.584 24.992 14.272 33.888 8.928 8.928 19.648 14.272 33.888 14.272h456.896c14.272 0 28.576-3.584 44.608-10.72s30.336-14.272 39.264-23.232zM519.936 835.264v-190.976h192.768c-3.584 8.928-7.136 16.064-12.512 19.648l-158.816 160.608c-3.584 3.584-10.72 7.136-21.44 10.72zM716.224 57.152v521.152h-212.384c-14.272 0-24.992 5.344-33.888 14.272-10.72 8.928-14.272 21.44-14.272 35.68v210.592h-392.64v-781.696zM216.512 174.944v-53.536h142.784v53.536h-37.472l51.744 82.112c1.792 3.584 3.584 5.344 5.344 8.928s3.584 5.344 3.584 7.136c1.792 1.792 1.792 1.792 1.792 1.792h1.792c0-1.792 1.792-3.584 1.792-5.344 1.792 0 1.792-1.792 3.584-3.584 0-1.792 1.792-1.792 1.792-3.584 1.792-1.792 3.584-3.584 3.584-5.344l55.328-82.112h-39.264v-53.536h148.128v53.536h-33.888l-98.144 139.232 99.936 144.544h33.888v55.328h-142.784v-55.328h37.472l-51.744-80.32c-1.792-3.584-3.584-5.344-5.344-8.928s-3.584-5.344-5.344-7.136v-1.792h-1.792c0 1.792 0 3.584-1.792 5.344-1.792 3.584-5.344 7.136-8.928 12.512l-53.536 80.32h37.472v55.328h-146.336v-55.328h33.888l96.352-139.232-98.144-144.544z" />
<glyph unicode="&#xe919;" glyph-name="exit" data-tags="exit" d="M411.84 259.712l73.952-73.952 262.208 262.208-262.208 262.208-73.952-73.952 135.296-135.84h-507.136v-104.896h507.136l-135.296-135.84zM879.104 920h-734.24c-58.208 0-104.896-47.2-104.896-104.896v-209.76h104.896v209.792h734.24v-734.24h-734.24v209.792h-104.896v-209.792c0-57.696 46.688-104.896 104.896-104.896h734.24c57.696 0 104.896 47.2 104.896 104.896v734.24c0 57.696-47.2 104.896-104.896 104.896z" />
<glyph unicode="&#xe91a;" glyph-name="filter" data-tags="filter" d="M170.656 392v112h682.656v-112h-682.656zM0 789.344h1024v-114.656h-1024v114.656zM397.344 106.656v114.656h229.344v-114.656h-229.344z" />
<glyph unicode="&#xe91b;" glyph-name="help" data-tags="help" d="M668.256 486.464c28.832 28.832 48.064 69.696 48.064 115.392 0 112.992-91.328 204.32-204.32 204.32s-204.32-91.328-204.32-204.32h100.96c0 55.296 48.064 103.36 103.36 103.36s103.36-48.064 103.36-103.36c0-28.832-12.032-52.896-31.264-72.128l-62.496-64.896c-36.064-38.464-60.096-88.928-60.096-144.224v-26.432h100.96c0 76.928 24.032 105.76 60.096 144.224zM562.464 89.856v100.96h-100.96v-100.96h100.96zM512 960c283.648 0 512-228.352 512-512s-228.352-512-512-512-512 228.352-512 512 228.352 512 512 512z" />
<glyph unicode="&#xe91c;" glyph-name="id-card" data-tags="id-card" horiz-adv-x="992" d="M797.632 39.104v71.936c0 103.104-203.84 158.272-306.976 158.272s-306.976-55.168-306.976-158.272v-71.936h613.92zM490.656 653.024c-83.936 0-153.472-69.536-153.472-153.472s69.536-153.472 153.472-153.472 153.472 69.536 153.472 153.472-69.536 153.472-153.472 153.472zM490.656 856.896c-28.768 0-50.368-21.6-50.368-50.368s21.6-52.768 50.368-52.768 50.368 23.968 50.368 52.768-21.568 50.368-50.368 50.368zM848 856.896c55.168 0 103.104-47.968 103.104-103.104v-714.656c0-55.168-47.968-103.104-103.104-103.104h-714.656c-55.168 0-103.104 47.968-103.104 103.104v714.656c0 55.168 47.968 103.104 103.104 103.104h213.44c21.6 59.968 76.736 103.104 143.904 103.104s122.304-43.168 143.904-103.104h213.44z" />
<glyph unicode="&#xe91d;" glyph-name="light" data-tags="light" horiz-adv-x="768" d="M222.4-12.8c0-28.16 23.040-51.2 51.2-51.2h204.8c28.16 0 51.2 23.040 51.2 51.2v51.2h-307.2v-51.2zM376 960c-197.632 0-358.4-160.768-358.4-358.4 0-121.856 60.928-228.864 153.6-293.888v-115.712c0-28.16 23.040-51.2 51.2-51.2h307.2c28.16 0 51.2 23.040 51.2 51.2v115.712c92.672 65.024 153.6 172.032 153.6 293.888 0 197.632-160.768 358.4-358.4 358.4zM521.92 391.68l-43.52-30.72v-117.76h-204.8v117.76l-43.52 30.72c-69.12 48.128-110.080 126.464-110.080 209.92 0 141.312 114.688 256 256 256s256-114.688 256-256c0-83.456-40.96-161.792-110.080-209.92z" />
<glyph unicode="&#xe91e;" glyph-name="log" data-tags="log" horiz-adv-x="1216" d="M67.2 924.8h1094.4v-134.4h-1094.4v134.4zM67.2 243.2v137.6h1094.4v-137.6h-1094.4zM1161.6 652.8v-137.6h-1094.4v137.6h1094.4zM752 105.6v-134.4h-684.8v134.4h684.8z" />
<glyph unicode="&#xe91f;" glyph-name="mars" data-tags="mars" horiz-adv-x="864" d="M841.152 886.848c20 0 36.576-16.576 36.576-36.576v-237.728c0-10.272-8-18.272-18.272-18.272h-36.576c-10.272 0-18.272 8-18.272 18.272v149.728l-218.272-218.848c45.152-56 72-127.424 72-205.152 0-181.728-147.424-329.152-329.152-329.152s-329.152 147.424-329.152 329.152 147.424 329.152 329.152 329.152c77.728 0 149.152-26.848 205.152-72l218.272 218.272h-149.152c-10.272 0-18.272 8-18.272 18.272v36.576c0 10.272 8 18.272 18.272 18.272h237.728zM329.152 82.272c141.152 0 256 114.848 256 256s-114.848 256-256 256-256-114.848-256-256 114.848-256 256-256z" />
<glyph unicode="&#xe920;" glyph-name="menu" data-tags="menu" horiz-adv-x="1664" d="M64 960h1536v-172h-1536v172zM64 364v168h1536v-168h-1536zM64-64v172h1536v-172h-1536z" />
<glyph unicode="&#xe921;" glyph-name="minus-square" data-tags="minus-square" horiz-adv-x="800" d="M656 466.304v-36.576c0-10.272-8-18.272-18.272-18.272h-475.424c-10.272 0-18.272 8-18.272 18.272v36.576c0 10.272 8 18.272 18.272 18.272h475.424c10.272 0 18.272-8 18.272-18.272zM729.12 210.304v475.424c0 50.272-41.152 91.424-91.424 91.424h-475.424c-50.272 0-91.424-41.152-91.424-91.424v-475.424c0-50.272 41.152-91.424 91.424-91.424h475.424c50.272 0 91.424 41.152 91.424 91.424zM802.304 685.696v-475.424c0-90.848-73.728-164.576-164.576-164.576h-475.424c-90.848 0-164.576 73.728-164.576 164.576v475.424c0 90.848 73.728 164.576 164.576 164.576h475.424c90.848 0 164.576-73.728 164.576-164.576z" />
<glyph unicode="&#xe922;" glyph-name="navigate-down" data-tags="navigate-down" horiz-adv-x="1056" d="M1032 643.84l-120.32 120.32-391.68-390.816-391.68 390.816-120.32-120.32 512-512z" />
<glyph unicode="&#xe923;" glyph-name="navigate-left" data-tags="navigate-left" horiz-adv-x="736" d="M563.84 960l120.32-120.32-390.816-391.68 390.816-391.68-120.32-120.32-512 512z" />
<glyph unicode="&#xe924;" glyph-name="navigate-right" data-tags="navigate-right" horiz-adv-x="736" d="M172.16 960l-120.32-120.32 390.816-391.68-390.816-391.68 120.32-120.32 512 512z" />
<glyph unicode="&#xe925;" glyph-name="navigate-up" data-tags="navigate-up" horiz-adv-x="1056" d="M1032 252.16l-120.32-120.32-391.68 390.816-391.68-390.816-120.32 120.32 512 512z" />
<glyph unicode="&#xe926;" glyph-name="no-avatar" data-tags="no-avatar" d="M512 838.4c74.24 0 134.4-60.16 134.4-134.4s-60.16-134.4-134.4-134.4-134.4 60.16-134.4 134.4 60.16 134.4 134.4 134.4zM512 262.4c190.080 0 390.4-93.44 390.4-134.4v-70.4h-780.8v70.4c0 40.96 200.32 134.4 390.4 134.4zM512 960c-141.44 0-256-114.56-256-256s114.56-256 256-256 256 114.56 256 256-114.56 256-256 256zM512 384c-170.88 0-512-85.76-512-256v-192h1024v192c0 170.24-341.12 256-512 256z" />
<glyph unicode="&#xe927;" glyph-name="people" data-tags="people" horiz-adv-x="1632" d="M1091.2 380.8c59.744 0 124.8-8.544 195.2-25.6s135.456-44.8 195.2-83.2c59.744-38.4 89.6-82.144 89.6-131.2v-169.6h-409.6v169.6c0 93.856-44.8 172.8-134.4 236.8 14.944 2.144 36.256 3.2 64 3.2zM547.2 380.8c59.744 0 124.8-8.544 195.2-25.6s134.944-44.8 193.6-83.2c58.656-38.4 88-82.144 88-131.2v-169.6h-956.8v169.6c0 49.056 29.856 92.8 89.6 131.2s124.8 66.144 195.2 83.2c70.4 17.056 135.456 25.6 195.2 25.6zM547.2 515.2c-55.456 0-103.456 20.256-144 60.8s-60.8 88.544-60.8 144c0 55.456 20.256 103.456 60.8 144s88.544 60.8 144 60.8c55.456 0 102.944-20.256 142.4-60.8s59.2-88.544 59.2-144c0-55.456-19.744-103.456-59.2-144s-86.944-60.8-142.4-60.8zM1091.2 515.2c-55.456 0-103.456 20.256-144 60.8s-60.8 88.544-60.8 144c0 55.456 20.256 103.456 60.8 144s88.544 60.8 144 60.8c55.456 0 103.456-20.256 144-60.8s60.8-88.544 60.8-144c0-55.456-20.256-103.456-60.8-144s-88.544-60.8-144-60.8z" />
<glyph unicode="&#xe928;" glyph-name="person" data-tags="person" d="M512 319.232c170.667 0 512-83.84 512-254.507v-128.768h-1024v128.768c0 170.667 341.333 254.507 512 254.507zM512 448c-140.715 0-254.507 113.792-254.507 254.507s113.792 257.493 254.507 257.493 254.507-116.779 254.507-257.493-113.792-254.507-254.507-254.507z" />
<glyph unicode="&#xe929;" glyph-name="place" data-tags="place" d="M512 874.656c-165.12 0-298.656-133.536-298.656-298.656 0-224 298.656-554.656 298.656-554.656s298.656 330.656 298.656 554.656c0 165.12-133.536 298.656-298.656 298.656zM512 469.344c-58.88 0-106.656 47.776-106.656 106.656s47.776 106.656 106.656 106.656 106.656-47.776 106.656-106.656-47.776-106.656-106.656-106.656z" />
<glyph unicode="&#xe92a;" glyph-name="play-arrow" data-tags="play-arrow" d="M109.952 960l804.096-512-804.096-512v1024z" />
<glyph unicode="&#xe92b;" glyph-name="plus-square" data-tags="plus-square" horiz-adv-x="800" d="M656 466.304v-36.576c0-10.272-8-18.272-18.272-18.272h-201.152v-201.152c0-10.272-8-18.272-18.272-18.272h-36.576c-10.272 0-18.272 8-18.272 18.272v201.152h-201.152c-10.272 0-18.272 8-18.272 18.272v36.576c0 10.272 8 18.272 18.272 18.272h201.152v201.152c0 10.272 8 18.272 18.272 18.272h36.576c10.272 0 18.272-8 18.272-18.272v-201.152h201.152c10.272 0 18.272-8 18.272-18.272zM729.12 210.304v475.424c0 50.272-41.152 91.424-91.424 91.424h-475.424c-50.272 0-91.424-41.152-91.424-91.424v-475.424c0-50.272 41.152-91.424 91.424-91.424h475.424c50.272 0 91.424 41.152 91.424 91.424zM802.304 685.696v-475.424c0-90.848-73.728-164.576-164.576-164.576h-475.424c-90.848 0-164.576 73.728-164.576 164.576v475.424c0 90.848 73.728 164.576 164.576 164.576h475.424c90.848 0 164.576-73.728 164.576-164.576z" />
<glyph unicode="&#xe92c;" glyph-name="radio-button-checked" data-tags="radio-button-checked" d="M512 36.96c225.952 0 411.040 185.088 411.040 411.040s-185.088 411.040-411.040 411.040-411.040-185.088-411.040-411.040 185.088-411.040 411.040-411.040zM512 960c283.648 0 512-228.352 512-512s-228.352-512-512-512-512 228.352-512 512 228.352 512 512 512zM512 705.216c141.824 0 257.216-115.392 257.216-257.216s-115.392-257.216-257.216-257.216-257.216 115.392-257.216 257.216 115.392 257.216 257.216 257.216z" />
<glyph unicode="&#xe92d;" glyph-name="radio-button-unchecked" data-tags="radio-button-unchecked" d="M512 36.96c225.952 0 411.040 185.088 411.040 411.040s-185.088 411.040-411.040 411.040-411.040-185.088-411.040-411.040 185.088-411.040 411.040-411.040zM512 960c283.648 0 512-228.352 512-512s-228.352-512-512-512-512 228.352-512 512 228.352 512 512 512z" />
<glyph unicode="&#xe92e;" glyph-name="remove-circle" data-tags="remove-circle" d="M769.216 397.536v100.96h-514.4v-100.96h514.4zM512 960c283.648 0 512-228.352 512-512s-228.352-512-512-512-512 228.352-512 512 228.352 512 512 512z" />
<glyph unicode="&#xe92f;" glyph-name="replay" data-tags="replay" horiz-adv-x="1184" d="M594.496 753.76c225.408 0 410.080-182.272 410.080-407.68s-184.672-410.080-410.080-410.080-410.080 184.672-410.080 410.080h103.104c0-170.272 136.704-306.976 306.976-306.976s306.976 136.704 306.976 306.976-136.704 306.976-306.976 306.976v-206.24l-256.608 256.608 256.608 256.608v-206.24z" />
<glyph unicode="&#xe930;" glyph-name="search" data-tags="search" d="M370.656 333.344c71.104 0 131.552 24.896 181.344 74.656s74.656 110.208 74.656 181.344c0 71.104-24.896 131.552-74.656 181.344s-110.208 74.656-181.344 74.656c-71.104 0-131.552-24.896-181.344-74.656s-74.656-110.208-74.656-181.344c0-71.104 24.896-131.552 74.656-181.344s110.208-74.656 181.344-74.656zM712 333.344l282.656-282.656-85.344-85.344-282.656 282.656v45.344l-16 16c-67.552-58.656-147.552-88-240-88-103.104 0-190.656 35.552-262.656 106.656s-108 158.208-108 261.344c0 103.104 36 190.656 108 262.656s159.552 108 262.656 108c103.104 0 190.208-36 261.344-108s106.656-159.552 106.656-262.656c0-92.448-29.344-172.448-88-240l16-16h45.344z" />
<glyph unicode="&#xe931;" glyph-name="shopping-basket" data-tags="shopping-basket" horiz-adv-x="1170" d="M1097.143 521.143c40.558 0 73.143-32.585 73.143-73.143s-32.585-73.143-73.143-73.143h-8.558l-65.719-378.295c-6.29-34.853-36.571-60.562-72.009-60.562h-731.429c-35.438 0-65.719 25.71-72.009 60.562l-65.719 378.295h-8.558c-40.558 0-73.143 32.585-73.143 73.143s32.585 73.143 73.143 73.143h1024zM277.138 64c20.005 1.719 35.438 19.419 33.719 39.424l-18.286 237.714c-1.719 20.005-19.419 35.438-39.424 33.719s-35.438-19.419-33.719-39.424l18.286-237.714c1.719-18.871 17.701-33.719 36.571-33.719h2.853zM512 100.571v237.714c0 20.005-16.567 36.571-36.571 36.571s-36.571-16.567-36.571-36.571v-237.714c0-20.005 16.567-36.571 36.571-36.571s36.571 16.567 36.571 36.571zM731.429 100.571v237.714c0 20.005-16.567 36.571-36.571 36.571s-36.571-16.567-36.571-36.571v-237.714c0-20.005 16.567-36.571 36.571-36.571s36.571 16.567 36.571 36.571zM932.571 97.719l18.286 237.714c1.719 20.005-13.714 37.705-33.719 39.424s-37.705-13.714-39.424-33.719l-18.286-237.714c-1.719-20.005 13.714-37.705 33.719-39.424h2.853c18.871 0 34.853 14.848 36.571 33.719zM272.018 793.161l-53.138-235.447h-75.447l57.71 252.014c14.848 66.853 73.728 113.701 142.299 113.701h95.415c0 20.005 16.567 36.571 36.571 36.571h219.429c20.005 0 36.571-16.567 36.571-36.571h95.415c68.571 0 127.415-46.848 142.299-113.701l57.71-252.014h-75.447l-53.138 235.447c-8.009 33.719-37.157 57.161-71.424 57.161h-95.415c0-20.005-16.567-36.571-36.571-36.571h-219.429c-20.005 0-36.571 16.567-36.571 36.571h-95.415c-34.304 0-63.415-23.442-71.424-57.161z" />
<glyph unicode="&#xe932;" glyph-name="skype" data-tags="skype" horiz-adv-x="864" d="M670.272 352.576c0 99.424-96.576 133.728-177.728 152l-59.424 13.728c-43.424 10.272-76 17.728-76 50.848 0 30.272 32 44 82.272 44 89.728 0 91.424-65.728 146.848-65.728 37.152 0 59.424 29.152 59.424 62.272 0 65.728-109.152 108.576-217.152 108.576-98.848 0-213.728-42.848-213.728-158.848 0-96 64-130.272 147.424-150.272l83.424-20.576c50.848-12.576 82.272-18.272 82.272-54.848 0-29.152-32.576-51.424-82.848-51.424-105.728 0-111.424 88-172.576 88-40 0-57.728-28.576-57.728-60 0-70.272 107.424-127.424 236-127.424 107.424 0 219.424 53.728 219.424 169.728zM877.728 228.576c0-121.152-98.272-219.424-219.424-219.424-50.272 0-96.576 17.152-133.728 45.728-27.424-5.728-56.576-9.152-85.728-9.152-222.272 0-402.272 180-402.272 402.272 0 29.152 3.424 58.272 9.152 85.728-28.576 37.152-45.728 83.424-45.728 133.728 0 121.152 98.272 219.424 219.424 219.424 50.272 0 96.576-17.152 133.728-45.728 27.424 5.728 56.576 9.152 85.728 9.152 222.272 0 402.272-180 402.272-402.272 0-29.152-3.424-58.272-9.152-85.728 28.576-37.152 45.728-83.424 45.728-133.728z" />
<glyph unicode="&#xe933;" glyph-name="sort-down" data-tags="sort-down" horiz-adv-x="800" d="M0 347.36h752.512l-376.256-409.696zM616.704 611.552l-240.416 261.792-240.416-261.792h480.864zM0 550.304l376.256 409.696 376.256-409.696h-752.512z" />
<glyph unicode="&#xe934;" glyph-name="sort-none" data-tags="sort-none" horiz-adv-x="800" d="M135.84 286.080l240.416-261.792 240.416 261.792h-480.864zM752.544 347.36l-376.256-409.696-376.256 409.696h752.512zM616.704 611.552l-240.416 261.792-240.416-261.792h480.864zM0 550.304l376.256 409.696 376.256-409.696h-752.512z" />
<glyph unicode="&#xe935;" glyph-name="sort-up" data-tags="sort-up" horiz-adv-x="800" d="M752.544 550.304h-752.512l376.256 409.696zM135.84 286.080l240.416-261.792 240.416 261.792h-480.864zM752.544 347.36l-376.256-409.696-376.256 409.696h752.512z" />
<glyph unicode="&#xe936;" glyph-name="spin3" data-tags="spin3" d="M505.856 960c-272.384 0-494.592-215.040-505.856-483.328-1.024-19.456 13.312-20.48 13.312-20.48h86.016c16.384 0 19.456 10.24 19.456 18.432 10.24 203.776 180.224 366.592 387.072 366.592 109.568 0 209.92-46.080 279.552-120.832l-59.392-58.368c-11.264-12.288-11.264-27.648 5.12-31.744l252.928-51.2c21.504-5.12 47.104 11.264 37.888 45.056l-59.392 232.448c-2.048 9.216-16.384 22.528-29.696 13.312l-66.56-61.44c-91.136 93.184-219.136 151.552-360.448 151.552zM924.672 439.808c-16.384 0-19.456-10.24-19.456-18.432-10.24-203.776-180.224-366.592-386.048-366.592-110.592 0-209.92 46.080-280.576 120.832l60.416 58.368c10.24 12.288 10.24 27.648-5.12 31.744l-253.952 51.2c-21.504 5.12-47.104-11.264-37.888-45.056l59.392-232.448c2.048-9.216 16.384-22.528 30.72-13.312l65.536 61.44c91.136-93.184 219.136-151.552 361.472-151.552 271.36 0 493.568 215.040 504.832 484.352 1.024 18.432-13.312 19.456-13.312 19.456h-86.016z" />
<glyph unicode="&#xe937;" glyph-name="spin4" data-tags="spin4" d="M509.952 960c-116.736 0-233.472-39.936-327.68-118.784v0c177.152 143.36 438.272 133.12 602.112-31.744 137.216-137.216 167.936-339.968 91.136-506.88-10.24-29.696-5.12-51.2 12.288-69.632 21.504-20.48 62.464-23.552 86.016 0 3.072 3.072 12.288 15.36 15.36 24.576 72.704 184.32 33.792 402.432-114.688 551.936-101.376 100.352-233.472 150.528-364.544 150.528zM91.136 679.424c-14.336 0-29.696-5.12-39.936-16.384-3.072-3.072-13.312-15.36-15.36-24.576-72.704-184.32-34.816-402.432 114.688-551.936 189.44-189.44 490.496-199.68 692.224-31.744v0c-177.152-143.36-438.272-133.12-603.136 31.744-137.216 137.216-166.912 340.992-91.136 506.88 11.264 29.696 6.144 51.2-12.288 69.632-11.264 11.264-27.648 17.408-45.056 16.384z" />
<glyph unicode="&#xe938;" glyph-name="star" data-tags="star" horiz-adv-x="1097" d="M1085.413 563.175c0-11.616-8.389-22.583-16.777-30.971l-234.224-228.416 55.49-322.622c0.645-4.517 0.645-8.389 0.645-12.905 0-16.775-7.744-32.263-26.455-32.263-9.033 0-18.066 3.225-25.81 7.744l-289.712 152.277-289.712-152.277c-8.389-4.517-16.777-7.744-25.81-7.744-18.711 0-27.099 15.486-27.099 32.263 0 4.517 0.645 8.389 1.291 12.905l55.49 322.622-234.869 228.416c-7.744 8.389-16.13 19.358-16.13 30.971 0 19.358 20.002 27.099 36.135 29.68l323.911 47.102 145.179 293.584c5.808 12.258 16.775 26.455 31.616 26.455s25.81-14.194 31.616-26.455l145.179-293.584 323.911-47.102c15.486-2.581 36.135-10.325 36.135-29.68z" />
<glyph unicode="&#xe939;" glyph-name="star-o" data-tags="star-o" horiz-adv-x="1097" d="M745.367 332.825l197.445 191.637-272.293 40.005-121.952 246.482-121.952-246.482-272.293-40.005 197.445-191.637-47.102-271.646 243.902 128.402 243.257-128.402zM1085.41 563.177c0-11.616-8.389-22.583-16.777-30.971l-234.224-228.416 55.49-322.622c0.645-4.517 0.645-8.389 0.645-12.905 0-17.422-7.744-32.263-26.455-32.263-9.033 0-18.066 3.225-25.81 7.744l-289.712 152.277-289.712-152.277c-8.389-4.517-16.777-7.744-25.81-7.744-18.711 0-27.099 15.486-27.099 32.263 0 4.517 0.645 8.389 1.291 12.905l55.49 322.622-234.869 228.416c-7.744 8.389-16.13 19.358-16.13 30.971 0 19.358 20.002 27.099 36.135 29.68l323.911 47.102 145.179 293.584c5.808 12.258 16.775 26.455 31.616 26.455s25.81-14.194 31.616-26.455l145.179-293.584 323.911-47.102c15.486-2.581 36.135-10.325 36.135-29.68z" />
<glyph unicode="&#xe93a;" glyph-name="stop" data-tags="stop" d="M0 960h1024v-1024h-1024v1024z" />
<glyph unicode="&#xe93b;" glyph-name="tags" data-tags="tags" horiz-adv-x="1086" d="M256 704c0 40.571-32.571 73.143-73.143 73.143s-73.143-32.571-73.143-73.143 32.571-73.143 73.143-73.143 73.143 32.571 73.143 73.143zM865.714 374.857c0-19.429-8-38.286-21.143-51.429l-280.571-281.143c-13.714-13.143-32.571-21.143-52-21.143s-38.286 8-51.429 21.143l-408.571 409.143c-29.143 28.571-52 84-52 124.571v237.714c0 40 33.143 73.143 73.143 73.143h237.714c40.571 0 96-22.857 125.143-52l408.571-408c13.143-13.714 21.143-32.571 21.143-52zM1085.143 374.857c0-19.429-8-38.286-21.143-51.429l-280.571-281.143c-13.714-13.143-32.571-21.143-52-21.143-29.714 0-44.571 13.714-64 33.714l268.571 268.571c13.143 13.143 21.143 32 21.143 51.429s-8 38.286-21.143 52l-408.571 408c-29.143 29.143-84.571 52-125.143 52h128c40.571 0 96-22.857 125.143-52l408.571-408c13.143-13.714 21.143-32.571 21.143-52z" />
<glyph unicode="&#xe93c;" glyph-name="tasklist" data-tags="tasklist" horiz-adv-x="864" d="M537.152 276.576v-96h-342.848v96h342.848zM779.424 34.272v534.848h-681.152v-534.848h681.152zM779.424 813.728c25.92 0 48.768-9.92 68.576-29.728s29.728-42.656 29.728-68.576v-681.152c0-25.92-9.92-48.768-29.728-68.576s-42.656-29.728-68.576-29.728h-681.152c-27.424 0-50.656 9.92-69.728 29.728s-28.576 42.656-28.576 68.576v681.152c0 25.92 9.536 48.768 28.576 68.576s42.272 29.728 69.728 29.728h48v98.272h98.272v-98.272h388.576v98.272h98.272v-98.272h48zM683.424 473.152v-98.272h-489.152v98.272h489.152z" />
<glyph unicode="&#xe93d;" glyph-name="tasks" data-tags="tasks" horiz-adv-x="1600" d="M909.728 667.424h-877.728v-146.272h877.728v146.272zM909.728 960h-877.728v-146.272h877.728v146.272zM32 228.576h585.152v146.272h-585.152v-146.272zM1458.272 557.728l109.728-109.728-511.264-512-329.888 329.152 109.728 109.728 220.16-219.424 401.568 402.272z" />
<glyph unicode="&#xe93e;" glyph-name="transfer" data-tags="transfer" horiz-adv-x="1088" d="M1048 448l-215.584 215.584v-161.696h-808.416v-107.776h808.416v-161.696z" />
<glyph unicode="&#xe93f;" glyph-name="transferto" data-tags="transferto" d="M1024 448l-1024-512v1024z" />
<glyph unicode="&#xe940;" glyph-name="triangle" data-tags="triangle" d="M0-64h1024v1024z" />
<glyph unicode="&#xe941;" glyph-name="triangle-up" data-tags="triangle-up" d="M1024 960h-1024v-1024z" />
<glyph unicode="&#xe942;" glyph-name="venus" data-tags="venus" horiz-adv-x="672" d="M662.496 617.536c0-165.888-125.536-302.656-286.976-320.608v-145.728h125.536c10.080 0 17.92-7.84 17.92-17.952v-35.872c0-10.080-7.84-17.952-17.92-17.952h-125.536v-125.536c0-10.080-7.84-17.92-17.92-17.92h-35.872c-10.080 0-17.92 7.84-17.92 17.952v125.536h-125.536c-10.080 0-17.952 7.84-17.952 17.952v35.872c0 10.080 7.84 17.952 17.952 17.952h125.536v145.728c-169.824 18.496-299.84 169.28-285.856 346.944 12.32 152.448 133.408 277.44 284.736 294.24 195.040 21.856 359.84-130.016 359.84-320.608zM88.576 617.536c0-138.432 112.672-251.104 251.104-251.104s251.104 112.672 251.104 251.104-112.672 251.104-251.104 251.104-251.104-112.672-251.104-251.104z" />
<glyph unicode="&#xe943;" glyph-name="warning" data-tags="warning" d="M557.76 331.424v187.36h-91.52v-187.36h91.52zM557.76 146.24v93.696h-91.52v-93.696h91.52zM0 6.816l512 882.368 512-882.368h-1024z" />
</font>
</defs>
</svg>
