<!-- Generated by IcoMoon.io -->
<svg version="1.1" xmlns="http://www.w3.org/2000/svg" width="36" height="32" viewBox="0 0 36 32">
<title>books</title>
<path d="M7.335 3.426h-6.287c-0.576 0-1.048 0.471-1.048 1.048v23.052c0 0.576 0.471 1.048 1.048 1.048h6.287c0.576 0 1.048-0.471 1.048-1.048v-23.052c0-0.576-0.471-1.048-1.048-1.048zM6.287 9.713h-4.191v-2.096h4.191v2.096z"></path>
<path d="M17.813 3.426h-6.287c-0.576 0-1.048 0.471-1.048 1.048v23.052c0 0.576 0.472 1.048 1.048 1.048h6.287c0.576 0 1.048-0.471 1.048-1.048v-23.052c0-0.576-0.471-1.048-1.048-1.048zM16.765 9.713h-4.191v-2.096h4.191v2.096z"></path>
<path d="M25.052 5.046l-5.614 2.829c-0.515 0.259-0.724 0.893-0.464 1.407l9.43 18.715c0.259 0.515 0.893 0.724 1.407 0.464l5.614-2.829c0.515-0.259 0.724-0.893 0.464-1.407l-9.43-18.715c-0.259-0.515-0.893-0.724-1.407-0.464z"></path>
</svg>
