<!-- Generated by IcoMoon.io -->
<svg version="1.1" xmlns="http://www.w3.org/2000/svg" width="32" height="32" viewBox="0 0 32 32">
<title>check-cycle-fail</title>
<path d="M16 28.845c7.061 0 12.845-5.784 12.845-12.845s-5.784-12.845-12.845-12.845-12.845 5.784-12.845 12.845 5.784 12.845 12.845 12.845zM16 0c8.864 0 16 7.136 16 16s-7.136 16-16 16-16-7.136-16-16 7.136-16 16-16zM20.131 9.615l2.254 2.254-4.131 4.131 4.131 4.131-2.254 2.254-4.131-4.131-4.131 4.131-2.254-2.254 4.131-4.131-4.131-4.131 2.254-2.254 4.131 4.131z"></path>
</svg>
