<!-- Generated by IcoMoon.io -->
<svg version="1.1" xmlns="http://www.w3.org/2000/svg" width="36" height="32" viewBox="0 0 36 32">
<title>email</title>
<path d="M17.833 14.258l14.185-8.877h-28.371l14.185 8.877zM32.019 26.619v-17.67l-14.185 8.793-14.185-8.793v17.67h28.371zM32.019 1.815c0.94 0 1.756 0.359 2.447 1.078s1.037 1.549 1.037 2.489v21.236c0 0.94-0.345 1.77-1.037 2.489s-1.507 1.078-2.447 1.078h-28.371c-0.94 0-1.756-0.359-2.447-1.078s-1.037-1.549-1.037-2.489v-21.236c0-0.94 0.345-1.77 1.037-2.489s1.507-1.078 2.447-1.078h28.371z"></path>
</svg>
