<!-- Generated by IcoMoon.io -->
<svg version="1.1" xmlns="http://www.w3.org/2000/svg" width="40" height="32" viewBox="0 0 40 32">
<title>email-sent</title>
<path d="M36.837 17.042l-8.678 8.678-3.819-3.471-2.43 2.43 6.249 5.901 11.108-11.108-2.43-2.43zM19.481 23.638l3.819-3.819c0.256-0.289 0.627-0.47 1.041-0.47s0.786 0.181 1.040 0.469l2.778 2.431 6.943-6.943v-10.414c-0.014-0.953-0.41-1.811-1.041-2.429-0.575-0.642-1.406-1.043-2.331-1.043-0.035 0-0.070 0.001-0.105 0.002l-27.766-0c-0.030-0.001-0.065-0.002-0.1-0.002-0.925 0-1.756 0.402-2.328 1.040-0.634 0.622-1.030 1.48-1.044 2.43l-0 20.831c0.014 0.953 0.41 1.811 1.041 2.429 0.575 0.642 1.406 1.043 2.331 1.043 0.035 0 0.070-0.001 0.105-0.002l19.087 0-3.471-3.471c-0.289-0.256-0.47-0.627-0.47-1.041s0.181-0.786 0.469-1.040zM3.86 8.364v-3.471l13.885 8.678 13.885-8.678v3.471l-13.885 8.678z"></path>
</svg>
