<!-- Generated by IcoMoon.io -->
<svg version="1.1" xmlns="http://www.w3.org/2000/svg" width="24" height="32" viewBox="0 0 24 32">
<title>excel</title>
<path d="M23.331 7.802c0.279 0.279 0.558 0.67 0.781 1.171s0.279 1.003 0.279 1.394v18.405c0 0.391-0.112 0.781-0.446 1.059-0.279 0.279-0.614 0.446-1.059 0.446h-21.417c-0.446 0-0.781-0.167-1.059-0.446-0.335-0.279-0.446-0.67-0.446-1.059v-25.544c0-0.391 0.112-0.781 0.446-1.059 0.279-0.279 0.614-0.446 1.059-0.446h14.278c0.446 0 0.893 0.112 1.394 0.335s0.948 0.446 1.227 0.726zM16.248 3.898v5.968h6.024c-0.112-0.279-0.223-0.502-0.391-0.614l-4.963-5.019c-0.112-0.112-0.335-0.223-0.67-0.335zM22.382 28.214v-16.286h-6.637c-0.446 0-0.781-0.167-1.059-0.446-0.335-0.279-0.446-0.67-0.446-1.115v-6.581h-12.27v24.428zM6.766 24.533v1.673h4.462v-1.673h-1.171l1.617-2.566c0.056-0.112 0.112-0.167 0.167-0.279s0.112-0.167 0.112-0.223c0.056-0.056 0.056-0.056 0.056-0.056h0.056c0 0.056 0.056 0.112 0.056 0.167 0.056 0 0.056 0.056 0.112 0.112 0 0.056 0.056 0.056 0.056 0.112 0.056 0.056 0.112 0.112 0.112 0.167l1.729 2.566h-1.227v1.673h4.629v-1.673h-1.059l-3.067-4.351 3.123-4.517h1.059v-1.729h-4.462v1.729h1.171l-1.617 2.51c-0.056 0.112-0.112 0.167-0.167 0.279s-0.112 0.167-0.167 0.223v0.056h-0.056c0-0.056 0-0.112-0.056-0.167-0.056-0.112-0.167-0.223-0.279-0.391l-1.673-2.51h1.171v-1.729h-4.573v1.729h1.059l3.011 4.351-3.067 4.517z"></path>
</svg>
