<!-- Generated by IcoMoon.io -->
<svg version="1.1" xmlns="http://www.w3.org/2000/svg" width="32" height="32" viewBox="0 0 32 32">
<title>help</title>
<path d="M20.883 14.798c0.901-0.901 1.502-2.178 1.502-3.606 0-3.531-2.854-6.385-6.385-6.385s-6.385 2.854-6.385 6.385h3.155c0-1.728 1.502-3.23 3.23-3.23s3.23 1.502 3.23 3.23c0 0.901-0.376 1.653-0.977 2.254l-1.953 2.028c-1.127 1.202-1.878 2.779-1.878 4.507v0.826h3.155c0-2.404 0.751-3.305 1.878-4.507zM17.577 27.192v-3.155h-3.155v3.155h3.155zM16 0c8.864 0 16 7.136 16 16s-7.136 16-16 16-16-7.136-16-16 7.136-16 16-16z"></path>
</svg>
