<!-- Generated by IcoMoon.io -->
<svg version="1.1" xmlns="http://www.w3.org/2000/svg" width="31" height="32" viewBox="0 0 31 32">
<title>id-card</title>
<path d="M24.926 28.778v-2.248c0-3.222-6.37-4.946-9.593-4.946s-9.593 1.724-9.593 4.946v2.248h19.185zM15.333 9.593c-2.623 0-4.796 2.173-4.796 4.796s2.173 4.796 4.796 4.796 4.796-2.173 4.796-4.796-2.173-4.796-4.796-4.796zM15.333 3.222c-0.899 0-1.574 0.675-1.574 1.574s0.675 1.649 1.574 1.649 1.574-0.749 1.574-1.649-0.674-1.574-1.574-1.574zM26.5 3.222c1.724 0 3.222 1.499 3.222 3.222v22.333c0 1.724-1.499 3.222-3.222 3.222h-22.333c-1.724 0-3.222-1.499-3.222-3.222v-22.333c0-1.724 1.499-3.222 3.222-3.222h6.67c0.675-1.874 2.398-3.222 4.497-3.222s3.822 1.349 4.497 3.222h6.67z"></path>
</svg>
