<!-- Generated by IcoMoon.io -->
<svg version="1.1" xmlns="http://www.w3.org/2000/svg" width="24" height="32" viewBox="0 0 24 32">
<title>light</title>
<path d="M6.95 30.4c0 0.88 0.72 1.6 1.6 1.6h6.4c0.88 0 1.6-0.72 1.6-1.6v-1.6h-9.6v1.6zM11.75 0c-6.176 0-11.2 5.024-11.2 11.2 0 3.808 1.904 7.152 4.8 9.184v3.616c0 0.88 0.72 1.6 1.6 1.6h9.6c0.88 0 1.6-0.72 1.6-1.6v-3.616c2.896-2.032 4.8-5.376 4.8-9.184 0-6.176-5.024-11.2-11.2-11.2zM16.31 17.76l-1.36 0.96v3.68h-6.4v-3.68l-1.36-0.96c-2.16-1.504-3.44-3.952-3.44-6.56 0-4.416 3.584-8 8-8s8 3.584 8 8c0 2.608-1.28 5.056-3.44 6.56z"></path>
</svg>
