<!-- Generated by IcoMoon.io -->
<svg version="1.1" xmlns="http://www.w3.org/2000/svg" width="51" height="32" viewBox="0 0 51 32">
<title>people</title>
<path d="M34.1 18.1c1.867 0 3.9 0.267 6.1 0.8s4.233 1.4 6.1 2.6c1.867 1.2 2.8 2.567 2.8 4.1v5.3h-12.8v-5.3c0-2.933-1.4-5.4-4.2-7.4 0.467-0.067 1.133-0.1 2-0.1zM17.1 18.1c1.867 0 3.9 0.267 6.1 0.8s4.217 1.4 6.050 2.6c1.833 1.2 2.75 2.567 2.75 4.1v5.3h-29.9v-5.3c0-1.533 0.933-2.9 2.8-4.1s3.9-2.067 6.1-2.6c2.2-0.533 4.233-0.8 6.1-0.8zM17.1 13.9c-1.733 0-3.233-0.633-4.5-1.9s-1.9-2.767-1.9-4.5c0-1.733 0.633-3.233 1.9-4.5s2.767-1.9 4.5-1.9c1.733 0 3.217 0.633 4.45 1.9s1.85 2.767 1.85 4.5c0 1.733-0.617 3.233-1.85 4.5s-2.717 1.9-4.45 1.9zM34.1 13.9c-1.733 0-3.233-0.633-4.5-1.9s-1.9-2.767-1.9-4.5c0-1.733 0.633-3.233 1.9-4.5s2.767-1.9 4.5-1.9c1.733 0 3.233 0.633 4.5 1.9s1.9 2.767 1.9 4.5c0 1.733-0.633 3.233-1.9 4.5s-2.767 1.9-4.5 1.9z"></path>
</svg>
