<!-- Generated by IcoMoon.io -->
<svg version="1.1" xmlns="http://www.w3.org/2000/svg" width="32" height="32" viewBox="0 0 32 32">
<title>search</title>
<path d="M11.583 19.583c2.222 0 4.111-0.778 5.667-2.333s2.333-3.444 2.333-5.667c0-2.222-0.778-4.111-2.333-5.667s-3.444-2.333-5.667-2.333c-2.222 0-4.111 0.778-5.667 2.333s-2.333 3.444-2.333 5.667c0 2.222 0.778 4.111 2.333 5.667s3.444 2.333 5.667 2.333zM22.25 19.583l8.833 8.833-2.667 2.667-8.833-8.833v-1.417l-0.5-0.5c-2.111 1.833-4.611 2.75-7.5 2.75-3.222 0-5.958-1.111-8.208-3.333s-3.375-4.944-3.375-8.167c0-3.222 1.125-5.958 3.375-8.208s4.986-3.375 8.208-3.375c3.222 0 5.944 1.125 8.167 3.375s3.333 4.986 3.333 8.208c0 2.889-0.917 5.389-2.75 7.5l0.5 0.5h1.417z"></path>
</svg>
