<!-- Generated by IcoMoon.io -->
<svg version="1.1" xmlns="http://www.w3.org/2000/svg" width="480" height="448" viewBox="0 0 480 448">
<title></title>
<g id="icomoon-ignore">
</g>
<path d="M326.098 274.389l86.382-83.841-119.128-17.502-53.354-107.836-53.354 107.836-119.128 17.502 86.382 83.841-20.607 118.845 106.707-56.176 106.425 56.176zM474.867 173.61c0 5.082-3.67 9.88-7.34 13.55l-102.473 99.932 24.277 141.147c0.282 1.976 0.282 3.67 0.282 5.646 0 7.622-3.388 14.115-11.574 14.115-3.952 0-7.904-1.411-11.292-3.388l-126.749-66.621-126.749 66.621c-3.67 1.976-7.34 3.388-11.292 3.388-8.186 0-11.856-6.775-11.856-14.115 0-1.976 0.282-3.67 0.565-5.646l24.277-141.147-102.755-99.932c-3.388-3.67-7.057-8.469-7.057-13.55 0-8.469 8.751-11.856 15.809-12.985l141.711-20.607 63.516-128.443c2.541-5.363 7.339-11.574 13.832-11.574s11.292 6.21 13.832 11.574l63.516 128.443 141.711 20.607c6.775 1.129 15.809 4.517 15.809 12.985z"></path>
</svg>
