<!-- Generated by IcoMoon.io -->
<svg version="1.1" xmlns="http://www.w3.org/2000/svg" width="27" height="32" viewBox="0 0 27 32">
<title>tasklist</title>
<path d="M16.786 21.357v3h-10.714v-3h10.714zM24.357 28.929v-16.714h-21.286v16.714h21.286zM24.357 4.571c0.81 0 1.524 0.31 2.143 0.929s0.929 1.333 0.929 2.143v21.286c0 0.81-0.31 1.524-0.929 2.143s-1.333 0.929-2.143 0.929h-21.286c-0.857 0-1.583-0.31-2.179-0.929s-0.893-1.333-0.893-2.143v-21.286c0-0.81 0.298-1.524 0.893-2.143s1.321-0.929 2.179-0.929h1.5v-3.071h3.071v3.071h12.143v-3.071h3.071v3.071h1.5zM21.357 15.214v3.071h-15.286v-3.071h15.286z"></path>
</svg>
