<!-- Generated by IcoMoon.io -->
<svg version="1.1" xmlns="http://www.w3.org/2000/svg" width="21" height="32" viewBox="0 0 21 32">
<title>venus</title>
<path d="M20.703 10.702c0 5.184-3.923 9.458-8.968 10.019v4.554h3.923c0.315 0 0.56 0.245 0.56 0.561v1.121c0 0.315-0.245 0.561-0.56 0.561h-3.923v3.923c0 0.315-0.245 0.56-0.56 0.56h-1.121c-0.315 0-0.56-0.245-0.56-0.561v-3.923h-3.923c-0.315 0-0.561-0.245-0.561-0.561v-1.121c0-0.315 0.245-0.561 0.561-0.561h3.923v-4.554c-5.307-0.578-9.37-5.29-8.933-10.842 0.385-4.764 4.169-8.67 8.898-9.195 6.095-0.683 11.245 4.063 11.245 10.019zM2.768 10.702c0 4.326 3.521 7.847 7.847 7.847s7.847-3.521 7.847-7.847-3.521-7.847-7.847-7.847-7.847 3.521-7.847 7.847z"></path>
</svg>
